<mxfile host="Electron" agent="Mozilla/5.0 (X11; Linux x86_64) AppleWebKit/537.36 (KHTML, like Gecko) draw.io/26.0.4 Chrome/128.0.6613.186 Electron/32.2.5 Safari/537.36" version="26.0.4">
  <diagram name="Page-1" id="Y85Vs0rw8DfabLvVE3c5">
    <mxGraphModel dx="1114" dy="1198" grid="1" gridSize="10" guides="1" tooltips="1" connect="1" arrows="1" fold="1" page="1" pageScale="1" pageWidth="850" pageHeight="1100" math="0" shadow="0">
      <root>
        <mxCell id="0" />
        <mxCell id="1" parent="0" />
        <mxCell id="IxKw2DbZiYedX6uyllzF-23" value="" style="fillColor=none;strokeColor=#147EBA;dashed=1;verticalAlign=top;fontStyle=0;fontColor=#147EBA;whiteSpace=wrap;html=1;" vertex="1" parent="1">
          <mxGeometry x="425" y="368" width="240" height="312" as="geometry" />
        </mxCell>
        <mxCell id="IxKw2DbZiYedX6uyllzF-18" style="edgeStyle=orthogonalEdgeStyle;rounded=0;orthogonalLoop=1;jettySize=auto;html=1;" edge="1" parent="1" source="IxKw2DbZiYedX6uyllzF-2" target="IxKw2DbZiYedX6uyllzF-15">
          <mxGeometry relative="1" as="geometry">
            <Array as="points">
              <mxPoint x="189" y="289.5" />
              <mxPoint x="189" y="479.5" />
            </Array>
          </mxGeometry>
        </mxCell>
        <mxCell id="IxKw2DbZiYedX6uyllzF-2" value="Amazon S3" style="sketch=0;points=[[0,0,0],[0.25,0,0],[0.5,0,0],[0.75,0,0],[1,0,0],[0,1,0],[0.25,1,0],[0.5,1,0],[0.75,1,0],[1,1,0],[0,0.25,0],[0,0.5,0],[0,0.75,0],[1,0.25,0],[1,0.5,0],[1,0.75,0]];outlineConnect=0;fontColor=#232F3E;fillColor=#7AA116;strokeColor=#ffffff;dashed=0;verticalLabelPosition=bottom;verticalAlign=top;align=center;html=1;fontSize=12;fontStyle=0;aspect=fixed;shape=mxgraph.aws4.resourceIcon;resIcon=mxgraph.aws4.s3;" vertex="1" parent="1">
          <mxGeometry x="70" y="250.5" width="78" height="78" as="geometry" />
        </mxCell>
        <mxCell id="IxKw2DbZiYedX6uyllzF-21" style="edgeStyle=orthogonalEdgeStyle;rounded=0;orthogonalLoop=1;jettySize=auto;html=1;" edge="1" parent="1" source="IxKw2DbZiYedX6uyllzF-3" target="IxKw2DbZiYedX6uyllzF-15">
          <mxGeometry relative="1" as="geometry">
            <Array as="points">
              <mxPoint x="189" y="417.5" />
              <mxPoint x="189" y="479.5" />
            </Array>
          </mxGeometry>
        </mxCell>
        <mxCell id="IxKw2DbZiYedX6uyllzF-3" value="Amazon RDS" style="sketch=0;points=[[0,0,0],[0.25,0,0],[0.5,0,0],[0.75,0,0],[1,0,0],[0,1,0],[0.25,1,0],[0.5,1,0],[0.75,1,0],[1,1,0],[0,0.25,0],[0,0.5,0],[0,0.75,0],[1,0.25,0],[1,0.5,0],[1,0.75,0]];outlineConnect=0;fontColor=#232F3E;fillColor=#C925D1;strokeColor=#ffffff;dashed=0;verticalLabelPosition=bottom;verticalAlign=top;align=center;html=1;fontSize=12;fontStyle=0;aspect=fixed;shape=mxgraph.aws4.resourceIcon;resIcon=mxgraph.aws4.rds;" vertex="1" parent="1">
          <mxGeometry x="70" y="378.5" width="78" height="78" as="geometry" />
        </mxCell>
        <mxCell id="IxKw2DbZiYedX6uyllzF-20" style="edgeStyle=orthogonalEdgeStyle;rounded=0;orthogonalLoop=1;jettySize=auto;html=1;" edge="1" parent="1" source="IxKw2DbZiYedX6uyllzF-4" target="IxKw2DbZiYedX6uyllzF-15">
          <mxGeometry relative="1" as="geometry">
            <Array as="points">
              <mxPoint x="189" y="541.5" />
              <mxPoint x="189" y="479.5" />
            </Array>
          </mxGeometry>
        </mxCell>
        <mxCell id="IxKw2DbZiYedX6uyllzF-4" value="Amazon DynamoDB" style="sketch=0;points=[[0,0,0],[0.25,0,0],[0.5,0,0],[0.75,0,0],[1,0,0],[0,1,0],[0.25,1,0],[0.5,1,0],[0.75,1,0],[1,1,0],[0,0.25,0],[0,0.5,0],[0,0.75,0],[1,0.25,0],[1,0.5,0],[1,0.75,0]];outlineConnect=0;fontColor=#232F3E;fillColor=#C925D1;strokeColor=#ffffff;dashed=0;verticalLabelPosition=bottom;verticalAlign=top;align=center;html=1;fontSize=12;fontStyle=0;aspect=fixed;shape=mxgraph.aws4.resourceIcon;resIcon=mxgraph.aws4.dynamodb;" vertex="1" parent="1">
          <mxGeometry x="70" y="502.5" width="78" height="78" as="geometry" />
        </mxCell>
        <mxCell id="IxKw2DbZiYedX6uyllzF-19" style="edgeStyle=orthogonalEdgeStyle;rounded=0;orthogonalLoop=1;jettySize=auto;html=1;" edge="1" parent="1" source="IxKw2DbZiYedX6uyllzF-5" target="IxKw2DbZiYedX6uyllzF-15">
          <mxGeometry relative="1" as="geometry">
            <Array as="points">
              <mxPoint x="189" y="668.5" />
              <mxPoint x="189" y="479.5" />
            </Array>
          </mxGeometry>
        </mxCell>
        <mxCell id="IxKw2DbZiYedX6uyllzF-5" value="JDBC" style="sketch=0;outlineConnect=0;fontColor=#232F3E;gradientColor=none;fillColor=#232F3D;strokeColor=none;dashed=0;verticalLabelPosition=bottom;verticalAlign=top;align=center;html=1;fontSize=12;fontStyle=0;aspect=fixed;pointerEvents=1;shape=mxgraph.aws4.generic_database;" vertex="1" parent="1">
          <mxGeometry x="79.5" y="629.5" width="59" height="78" as="geometry" />
        </mxCell>
        <mxCell id="IxKw2DbZiYedX6uyllzF-6" value="AWS Glue Jobs (ETL)" style="sketch=0;points=[[0,0,0],[0.25,0,0],[0.5,0,0],[0.75,0,0],[1,0,0],[0,1,0],[0.25,1,0],[0.5,1,0],[0.75,1,0],[1,1,0],[0,0.25,0],[0,0.5,0],[0,0.75,0],[1,0.25,0],[1,0.5,0],[1,0.75,0]];outlineConnect=0;fontColor=#232F3E;fillColor=#8C4FFF;strokeColor=#ffffff;dashed=0;verticalLabelPosition=middle;verticalAlign=middle;align=right;html=1;fontSize=12;fontStyle=0;aspect=fixed;shape=mxgraph.aws4.resourceIcon;resIcon=mxgraph.aws4.glue;labelPosition=left;spacingRight=5;" vertex="1" parent="1">
          <mxGeometry x="506" y="250.5" width="78" height="78" as="geometry" />
        </mxCell>
        <mxCell id="IxKw2DbZiYedX6uyllzF-7" value="Amazon EMR" style="sketch=0;points=[[0,0,0],[0.25,0,0],[0.5,0,0],[0.75,0,0],[1,0,0],[0,1,0],[0.25,1,0],[0.5,1,0],[0.75,1,0],[1,1,0],[0,0.25,0],[0,0.5,0],[0,0.75,0],[1,0.25,0],[1,0.5,0],[1,0.75,0]];outlineConnect=0;fontColor=#232F3E;fillColor=#8C4FFF;strokeColor=#ffffff;dashed=0;verticalLabelPosition=bottom;verticalAlign=top;align=center;html=1;fontSize=12;fontStyle=0;aspect=fixed;shape=mxgraph.aws4.resourceIcon;resIcon=mxgraph.aws4.athena;" vertex="1" parent="1">
          <mxGeometry x="725" y="620" width="78" height="78" as="geometry" />
        </mxCell>
        <mxCell id="IxKw2DbZiYedX6uyllzF-8" value="Amazon&lt;div&gt;Redshift&lt;/div&gt;&lt;div&gt;Spectrum&lt;/div&gt;" style="sketch=0;points=[[0,0,0],[0.25,0,0],[0.5,0,0],[0.75,0,0],[1,0,0],[0,1,0],[0.25,1,0],[0.5,1,0],[0.75,1,0],[1,1,0],[0,0.25,0],[0,0.5,0],[0,0.75,0],[1,0.25,0],[1,0.5,0],[1,0.75,0]];outlineConnect=0;fontColor=#232F3E;fillColor=#8C4FFF;strokeColor=#ffffff;dashed=0;verticalLabelPosition=bottom;verticalAlign=top;align=center;html=1;fontSize=12;fontStyle=0;aspect=fixed;shape=mxgraph.aws4.resourceIcon;resIcon=mxgraph.aws4.redshift;" vertex="1" parent="1">
          <mxGeometry x="725" y="378.5" width="78" height="78" as="geometry" />
        </mxCell>
        <mxCell id="IxKw2DbZiYedX6uyllzF-9" value="Amazon Athena" style="sketch=0;points=[[0,0,0],[0.25,0,0],[0.5,0,0],[0.75,0,0],[1,0,0],[0,1,0],[0.25,1,0],[0.5,1,0],[0.75,1,0],[1,1,0],[0,0.25,0],[0,0.5,0],[0,0.75,0],[1,0.25,0],[1,0.5,0],[1,0.75,0]];outlineConnect=0;fontColor=#232F3E;fillColor=#8C4FFF;strokeColor=#ffffff;dashed=0;verticalLabelPosition=bottom;verticalAlign=top;align=center;html=1;fontSize=12;fontStyle=0;aspect=fixed;shape=mxgraph.aws4.resourceIcon;resIcon=mxgraph.aws4.emr;" vertex="1" parent="1">
          <mxGeometry x="725" y="250.5" width="78" height="78" as="geometry" />
        </mxCell>
        <mxCell id="IxKw2DbZiYedX6uyllzF-22" style="edgeStyle=orthogonalEdgeStyle;rounded=0;orthogonalLoop=1;jettySize=auto;html=1;" edge="1" parent="1" source="IxKw2DbZiYedX6uyllzF-10" target="IxKw2DbZiYedX6uyllzF-6">
          <mxGeometry relative="1" as="geometry" />
        </mxCell>
        <mxCell id="IxKw2DbZiYedX6uyllzF-10" value="AWS Glue&lt;div&gt;Data Catalog&lt;/div&gt;" style="sketch=0;outlineConnect=0;fontColor=#232F3E;gradientColor=none;fillColor=#8C4FFF;strokeColor=none;dashed=0;verticalLabelPosition=bottom;verticalAlign=top;align=center;html=1;fontSize=24;fontStyle=0;aspect=fixed;pointerEvents=1;shape=mxgraph.aws4.glue_data_catalog;" vertex="1" parent="1">
          <mxGeometry x="509" y="378.5" width="72" height="78" as="geometry" />
        </mxCell>
        <mxCell id="IxKw2DbZiYedX6uyllzF-13" value="" style="sketch=0;outlineConnect=0;fontColor=#232F3E;gradientColor=none;fillColor=#232F3D;strokeColor=none;dashed=0;verticalLabelPosition=bottom;verticalAlign=top;align=center;html=1;fontSize=12;fontStyle=0;aspect=fixed;pointerEvents=1;shape=mxgraph.aws4.data_table;" vertex="1" parent="1">
          <mxGeometry x="447.5" y="569.5" width="78" height="59" as="geometry" />
        </mxCell>
        <mxCell id="IxKw2DbZiYedX6uyllzF-30" value="&amp;nbsp;Writes Metadata&amp;nbsp;" style="edgeStyle=orthogonalEdgeStyle;rounded=0;orthogonalLoop=1;jettySize=auto;html=1;" edge="1" parent="1" source="IxKw2DbZiYedX6uyllzF-15" target="IxKw2DbZiYedX6uyllzF-10">
          <mxGeometry x="0.0322" relative="1" as="geometry">
            <Array as="points">
              <mxPoint x="320" y="480" />
              <mxPoint x="320" y="418" />
            </Array>
            <mxPoint x="1" as="offset" />
          </mxGeometry>
        </mxCell>
        <mxCell id="IxKw2DbZiYedX6uyllzF-15" value="AWS Glue&lt;div&gt;Data Crawler&lt;/div&gt;" style="sketch=0;outlineConnect=0;fontColor=#232F3E;gradientColor=none;fillColor=#8C4FFF;strokeColor=none;dashed=0;verticalLabelPosition=bottom;verticalAlign=top;align=center;html=1;fontSize=12;fontStyle=0;aspect=fixed;pointerEvents=1;shape=mxgraph.aws4.glue_crawlers;" vertex="1" parent="1">
          <mxGeometry x="220" y="440.5" width="78" height="78" as="geometry" />
        </mxCell>
        <mxCell id="IxKw2DbZiYedX6uyllzF-24" value="Tables&lt;div&gt;(Metadata)&lt;/div&gt;" style="fillColor=none;strokeColor=#147EBA;dashed=1;verticalAlign=bottom;fontStyle=1;fontColor=#147EBA;whiteSpace=wrap;html=1;" vertex="1" parent="1">
          <mxGeometry x="437.5" y="559.5" width="100" height="110" as="geometry" />
        </mxCell>
        <mxCell id="IxKw2DbZiYedX6uyllzF-25" value="" style="sketch=0;outlineConnect=0;fontColor=#232F3E;gradientColor=none;fillColor=#232F3D;strokeColor=none;dashed=0;verticalLabelPosition=bottom;verticalAlign=top;align=center;html=1;fontSize=12;fontStyle=0;aspect=fixed;pointerEvents=1;shape=mxgraph.aws4.data_table;" vertex="1" parent="1">
          <mxGeometry x="562.5" y="569.5" width="78" height="59" as="geometry" />
        </mxCell>
        <mxCell id="IxKw2DbZiYedX6uyllzF-26" value="Tables&lt;div&gt;(Metadata)&lt;/div&gt;" style="fillColor=none;strokeColor=#147EBA;dashed=1;verticalAlign=bottom;fontStyle=1;fontColor=#147EBA;whiteSpace=wrap;html=1;" vertex="1" parent="1">
          <mxGeometry x="552.5" y="559.5" width="100" height="110" as="geometry" />
        </mxCell>
        <mxCell id="IxKw2DbZiYedX6uyllzF-27" value="Database" style="text;html=1;align=center;verticalAlign=middle;resizable=0;points=[];autosize=1;strokeColor=none;fillColor=none;" vertex="1" parent="1">
          <mxGeometry x="452.5" y="530" width="70" height="30" as="geometry" />
        </mxCell>
        <mxCell id="IxKw2DbZiYedX6uyllzF-28" value="Database" style="text;html=1;align=center;verticalAlign=middle;resizable=0;points=[];autosize=1;strokeColor=none;fillColor=none;" vertex="1" parent="1">
          <mxGeometry x="567.5" y="530" width="70" height="30" as="geometry" />
        </mxCell>
        <mxCell id="IxKw2DbZiYedX6uyllzF-31" style="edgeStyle=orthogonalEdgeStyle;rounded=0;orthogonalLoop=1;jettySize=auto;html=1;entryX=0;entryY=0.5;entryDx=0;entryDy=0;entryPerimeter=0;" edge="1" parent="1" source="IxKw2DbZiYedX6uyllzF-10" target="IxKw2DbZiYedX6uyllzF-9">
          <mxGeometry relative="1" as="geometry">
            <Array as="points">
              <mxPoint x="685" y="418" />
              <mxPoint x="685" y="290" />
            </Array>
          </mxGeometry>
        </mxCell>
        <mxCell id="IxKw2DbZiYedX6uyllzF-32" style="edgeStyle=orthogonalEdgeStyle;rounded=0;orthogonalLoop=1;jettySize=auto;html=1;entryX=0;entryY=0.5;entryDx=0;entryDy=0;entryPerimeter=0;" edge="1" parent="1" source="IxKw2DbZiYedX6uyllzF-10" target="IxKw2DbZiYedX6uyllzF-8">
          <mxGeometry relative="1" as="geometry" />
        </mxCell>
        <mxCell id="IxKw2DbZiYedX6uyllzF-33" style="edgeStyle=orthogonalEdgeStyle;rounded=0;orthogonalLoop=1;jettySize=auto;html=1;entryX=0;entryY=0.5;entryDx=0;entryDy=0;entryPerimeter=0;" edge="1" parent="1" source="IxKw2DbZiYedX6uyllzF-10" target="IxKw2DbZiYedX6uyllzF-7">
          <mxGeometry relative="1" as="geometry">
            <Array as="points">
              <mxPoint x="685" y="418" />
              <mxPoint x="685" y="659" />
            </Array>
          </mxGeometry>
        </mxCell>
        <mxCell id="IxKw2DbZiYedX6uyllzF-34" value="Data discovery" style="text;html=1;align=center;verticalAlign=middle;resizable=0;points=[];autosize=1;strokeColor=none;fillColor=none;" vertex="1" parent="1">
          <mxGeometry x="590" y="390" width="100" height="30" as="geometry" />
        </mxCell>
      </root>
    </mxGraphModel>
  </diagram>
</mxfile>
